<svg height="3694" width="720" xmlns="http://www.w3.org/2000/svg">
<rect height="3694" fill="#555" width="720"></rect>
<text fill="#7f7" font-family="Courier New" font-size="12" xml:space="preserve">
<tspan x="10" y="26">147 megabytes installed</tspan>
<tspan x="10" y="42"></tspan>
<tspan x="10" y="58">node_modules</tspan>
<tspan x="10" y="74">└─┬ html5-to-pdf@2.2.2 </tspan>
<tspan x="10" y="90">  ├── coffee-script@1.12.5 </tspan>
<tspan x="10" y="106">  ├── colors@1.1.2 </tspan>
<tspan x="10" y="122">  ├─┬ commander@2.9.0 </tspan>
<tspan x="10" y="138">  │ └── graceful-readlink@1.0.1 </tspan>
<tspan x="10" y="154">  ├─┬ debug@2.6.4 </tspan>
<tspan x="10" y="170">  │ └── ms@0.7.3 </tspan>
<tspan x="10" y="186">  ├─┬ express@4.15.2 </tspan>
<tspan x="10" y="202">  │ ├─┬ accepts@1.3.3 </tspan>
<tspan x="10" y="218">  │ │ ├─┬ mime-types@2.1.15 </tspan>
<tspan x="10" y="234">  │ │ │ └── mime-db@1.27.0 </tspan>
<tspan x="10" y="250">  │ │ └── negotiator@0.6.1 </tspan>
<tspan x="10" y="266">  │ ├── array-flatten@1.1.1 </tspan>
<tspan x="10" y="282">  │ ├── content-disposition@0.5.2 </tspan>
<tspan x="10" y="298">  │ ├── content-type@1.0.2 </tspan>
<tspan x="10" y="314">  │ ├── cookie@0.3.1 </tspan>
<tspan x="10" y="330">  │ ├── cookie-signature@1.0.6 </tspan>
<tspan x="10" y="346">  │ ├─┬ debug@2.6.1 </tspan>
<tspan x="10" y="362">  │ │ └── ms@0.7.2 </tspan>
<tspan x="10" y="378">  │ ├── depd@1.1.0 </tspan>
<tspan x="10" y="394">  │ ├── encodeurl@1.0.1 </tspan>
<tspan x="10" y="410">  │ ├── escape-html@1.0.3 </tspan>
<tspan x="10" y="426">  │ ├── etag@1.8.0 </tspan>
<tspan x="10" y="442">  │ ├─┬ finalhandler@1.0.2 </tspan>
<tspan x="10" y="458">  │ │ └── unpipe@1.0.0 </tspan>
<tspan x="10" y="474">  │ ├── fresh@0.5.0 </tspan>
<tspan x="10" y="490">  │ ├── merge-descriptors@1.0.1 </tspan>
<tspan x="10" y="506">  │ ├── methods@1.1.2 </tspan>
<tspan x="10" y="522">  │ ├─┬ on-finished@2.3.0 </tspan>
<tspan x="10" y="538">  │ │ └── ee-first@1.1.1 </tspan>
<tspan x="10" y="554">  │ ├── parseurl@1.3.1 </tspan>
<tspan x="10" y="570">  │ ├── path-to-regexp@0.1.7 </tspan>
<tspan x="10" y="586">  │ ├─┬ proxy-addr@1.1.4 </tspan>
<tspan x="10" y="602">  │ │ ├── forwarded@0.1.0 </tspan>
<tspan x="10" y="618">  │ │ └── ipaddr.js@1.3.0 </tspan>
<tspan x="10" y="634">  │ ├── qs@6.4.0 </tspan>
<tspan x="10" y="650">  │ ├── range-parser@1.2.0 </tspan>
<tspan x="10" y="666">  │ ├─┬ send@0.15.1 </tspan>
<tspan x="10" y="682">  │ │ ├── debug@2.6.1 </tspan>
<tspan x="10" y="698">  │ │ ├── destroy@1.0.4 </tspan>
<tspan x="10" y="714">  │ │ ├─┬ http-errors@1.6.1 </tspan>
<tspan x="10" y="730">  │ │ │ └── inherits@2.0.3 </tspan>
<tspan x="10" y="746">  │ │ ├── mime@1.3.4 </tspan>
<tspan x="10" y="762">  │ │ └── ms@0.7.2 </tspan>
<tspan x="10" y="778">  │ ├── serve-static@1.12.1 </tspan>
<tspan x="10" y="794">  │ ├── setprototypeof@1.0.3 </tspan>
<tspan x="10" y="810">  │ ├── statuses@1.3.1 </tspan>
<tspan x="10" y="826">  │ ├─┬ type-is@1.6.15 </tspan>
<tspan x="10" y="842">  │ │ └── media-typer@0.3.0 </tspan>
<tspan x="10" y="858">  │ ├── utils-merge@1.0.0 </tspan>
<tspan x="10" y="874">  │ └── vary@1.1.1 </tspan>
<tspan x="10" y="890">  ├─┬ fs-extra@2.1.2 </tspan>
<tspan x="10" y="906">  │ ├── graceful-fs@4.1.11 </tspan>
<tspan x="10" y="922">  │ └── jsonfile@2.4.0 </tspan>
<tspan x="10" y="938">  ├── lodash@4.17.4 </tspan>
<tspan x="10" y="954">  ├─┬ nightmare@2.10.0 </tspan>
<tspan x="10" y="970">  │ ├─┬ deep-defaults@1.0.4 </tspan>
<tspan x="10" y="986">  │ │ └── lodash@3.0.1 </tspan>
<tspan x="10" y="1002">  │ ├─┬ defaults@1.0.3 </tspan>
<tspan x="10" y="1018">  │ │ └── clone@1.0.2 </tspan>
<tspan x="10" y="1034">  │ ├─┬ electron@1.6.6 </tspan>
<tspan x="10" y="1050">  │ │ ├─┬ electron-download@3.3.0 </tspan>
<tspan x="10" y="1066">  │ │ │ ├─┬ fs-extra@0.30.0 </tspan>
<tspan x="10" y="1082">  │ │ │ │ └── klaw@1.3.1 </tspan>
<tspan x="10" y="1098">  │ │ │ ├── home-path@1.0.5 </tspan>
<tspan x="10" y="1114">  │ │ │ ├── minimist@1.2.0 </tspan>
<tspan x="10" y="1130">  │ │ │ ├─┬ nugget@2.0.1 </tspan>
<tspan x="10" y="1146">  │ │ │ │ ├─┬ pretty-bytes@1.0.4 </tspan>
<tspan x="10" y="1162">  │ │ │ │ │ ├── get-stdin@4.0.1 </tspan>
<tspan x="10" y="1178">  │ │ │ │ │ └─┬ meow@3.7.0 </tspan>
<tspan x="10" y="1194">  │ │ │ │ │   ├─┬ camelcase-keys@2.1.0 </tspan>
<tspan x="10" y="1210">  │ │ │ │ │   │ └── camelcase@2.1.1 </tspan>
<tspan x="10" y="1226">  │ │ │ │ │   ├── decamelize@1.2.0 </tspan>
<tspan x="10" y="1242">  │ │ │ │ │   ├─┬ loud-rejection@1.6.0 </tspan>
<tspan x="10" y="1258">  │ │ │ │ │   │ ├─┬ currently-unhandled@0.4.1 </tspan>
<tspan x="10" y="1274">  │ │ │ │ │   │ │ └── array-find-index@1.0.2 </tspan>
<tspan x="10" y="1290">  │ │ │ │ │   │ └── signal-exit@3.0.2 </tspan>
<tspan x="10" y="1306">  │ │ │ │ │   ├── map-obj@1.0.1 </tspan>
<tspan x="10" y="1322">  │ │ │ │ │   ├─┬ normalize-package-data@2.3.8 </tspan>
<tspan x="10" y="1338">  │ │ │ │ │   │ ├── hosted-git-info@2.4.2 </tspan>
<tspan x="10" y="1354">  │ │ │ │ │   │ ├─┬ is-builtin-module@1.0.0 </tspan>
<tspan x="10" y="1370">  │ │ │ │ │   │ │ └── builtin-modules@1.1.1 </tspan>
<tspan x="10" y="1386">  │ │ │ │ │   │ └─┬ validate-npm-package-license@3.0.1 </tspan>
<tspan x="10" y="1402">  │ │ │ │ │   │   ├─┬ spdx-correct@1.0.2 </tspan>
<tspan x="10" y="1418">  │ │ │ │ │   │   │ └── spdx-license-ids@1.2.2 </tspan>
<tspan x="10" y="1434">  │ │ │ │ │   │   └── spdx-expression-parse@1.0.4 </tspan>
<tspan x="10" y="1450">  │ │ │ │ │   ├── object-assign@4.1.1 </tspan>
<tspan x="10" y="1466">  │ │ │ │ │   ├─┬ read-pkg-up@1.0.1 </tspan>
<tspan x="10" y="1482">  │ │ │ │ │   │ ├── find-up@1.1.2 </tspan>
<tspan x="10" y="1498">  │ │ │ │ │   │ └─┬ read-pkg@1.1.0 </tspan>
<tspan x="10" y="1514">  │ │ │ │ │   │   ├─┬ load-json-file@1.1.0 </tspan>
<tspan x="10" y="1530">  │ │ │ │ │   │   │ ├─┬ parse-json@2.2.0 </tspan>
<tspan x="10" y="1546">  │ │ │ │ │   │   │ │ └─┬ error-ex@1.3.1 </tspan>
<tspan x="10" y="1562">  │ │ │ │ │   │   │ │   └── is-arrayish@0.2.1 </tspan>
<tspan x="10" y="1578">  │ │ │ │ │   │   │ ├── pify@2.3.0 </tspan>
<tspan x="10" y="1594">  │ │ │ │ │   │   │ └─┬ strip-bom@2.0.0 </tspan>
<tspan x="10" y="1610">  │ │ │ │ │   │   │   └── is-utf8@0.2.1 </tspan>
<tspan x="10" y="1626">  │ │ │ │ │   │   └── path-type@1.1.0 </tspan>
<tspan x="10" y="1642">  │ │ │ │ │   ├─┬ redent@1.0.0 </tspan>
<tspan x="10" y="1658">  │ │ │ │ │   │ ├─┬ indent-string@2.1.0 </tspan>
<tspan x="10" y="1674">  │ │ │ │ │   │ │ └─┬ repeating@2.0.1 </tspan>
<tspan x="10" y="1690">  │ │ │ │ │   │ │   └── is-finite@1.0.2 </tspan>
<tspan x="10" y="1706">  │ │ │ │ │   │ └── strip-indent@1.0.1 </tspan>
<tspan x="10" y="1722">  │ │ │ │ │   └── trim-newlines@1.0.0 </tspan>
<tspan x="10" y="1738">  │ │ │ │ ├─┬ progress-stream@1.2.0 </tspan>
<tspan x="10" y="1754">  │ │ │ │ │ ├── speedometer@0.1.4 </tspan>
<tspan x="10" y="1770">  │ │ │ │ │ └─┬ through2@0.2.3 </tspan>
<tspan x="10" y="1786">  │ │ │ │ │   ├─┬ readable-stream@1.1.14 </tspan>
<tspan x="10" y="1802">  │ │ │ │ │   │ └── isarray@0.0.1 </tspan>
<tspan x="10" y="1818">  │ │ │ │ │   └─┬ xtend@2.1.2 </tspan>
<tspan x="10" y="1834">  │ │ │ │ │     └── object-keys@0.4.0 </tspan>
<tspan x="10" y="1850">  │ │ │ │ ├─┬ request@2.81.0 </tspan>
<tspan x="10" y="1866">  │ │ │ │ │ ├── aws-sign2@0.6.0 </tspan>
<tspan x="10" y="1882">  │ │ │ │ │ ├── aws4@1.6.0 </tspan>
<tspan x="10" y="1898">  │ │ │ │ │ ├── caseless@0.12.0 </tspan>
<tspan x="10" y="1914">  │ │ │ │ │ ├─┬ combined-stream@1.0.5 </tspan>
<tspan x="10" y="1930">  │ │ │ │ │ │ └── delayed-stream@1.0.0 </tspan>
<tspan x="10" y="1946">  │ │ │ │ │ ├── extend@3.0.0 </tspan>
<tspan x="10" y="1962">  │ │ │ │ │ ├── forever-agent@0.6.1 </tspan>
<tspan x="10" y="1978">  │ │ │ │ │ ├─┬ form-data@2.1.4 </tspan>
<tspan x="10" y="1994">  │ │ │ │ │ │ └── asynckit@0.4.0 </tspan>
<tspan x="10" y="2010">  │ │ │ │ │ ├─┬ har-validator@4.2.1 </tspan>
<tspan x="10" y="2026">  │ │ │ │ │ │ ├─┬ ajv@4.11.7 </tspan>
<tspan x="10" y="2042">  │ │ │ │ │ │ │ ├── co@4.6.0 </tspan>
<tspan x="10" y="2058">  │ │ │ │ │ │ │ └─┬ json-stable-stringify@1.0.1 </tspan>
<tspan x="10" y="2074">  │ │ │ │ │ │ │   └── jsonify@0.0.0 </tspan>
<tspan x="10" y="2090">  │ │ │ │ │ │ └── har-schema@1.0.5 </tspan>
<tspan x="10" y="2106">  │ │ │ │ │ ├─┬ hawk@3.1.3 </tspan>
<tspan x="10" y="2122">  │ │ │ │ │ │ ├── boom@2.10.1 </tspan>
<tspan x="10" y="2138">  │ │ │ │ │ │ ├── cryptiles@2.0.5 </tspan>
<tspan x="10" y="2154">  │ │ │ │ │ │ ├── hoek@2.16.3 </tspan>
<tspan x="10" y="2170">  │ │ │ │ │ │ └── sntp@1.0.9 </tspan>
<tspan x="10" y="2186">  │ │ │ │ │ ├─┬ http-signature@1.1.1 </tspan>
<tspan x="10" y="2202">  │ │ │ │ │ │ ├── assert-plus@0.2.0 </tspan>
<tspan x="10" y="2218">  │ │ │ │ │ │ ├─┬ jsprim@1.4.0 </tspan>
<tspan x="10" y="2234">  │ │ │ │ │ │ │ ├── assert-plus@1.0.0 </tspan>
<tspan x="10" y="2250">  │ │ │ │ │ │ │ ├── extsprintf@1.0.2 </tspan>
<tspan x="10" y="2266">  │ │ │ │ │ │ │ ├── json-schema@0.2.3 </tspan>
<tspan x="10" y="2282">  │ │ │ │ │ │ │ └── verror@1.3.6 </tspan>
<tspan x="10" y="2298">  │ │ │ │ │ │ └─┬ sshpk@1.13.0 </tspan>
<tspan x="10" y="2314">  │ │ │ │ │ │   ├── asn1@0.2.3 </tspan>
<tspan x="10" y="2330">  │ │ │ │ │ │   ├── assert-plus@1.0.0 </tspan>
<tspan x="10" y="2346">  │ │ │ │ │ │   ├── bcrypt-pbkdf@1.0.1 </tspan>
<tspan x="10" y="2362">  │ │ │ │ │ │   ├─┬ dashdash@1.14.1 </tspan>
<tspan x="10" y="2378">  │ │ │ │ │ │   │ └── assert-plus@1.0.0 </tspan>
<tspan x="10" y="2394">  │ │ │ │ │ │   ├── ecc-jsbn@0.1.1 </tspan>
<tspan x="10" y="2410">  │ │ │ │ │ │   ├─┬ getpass@0.1.6 </tspan>
<tspan x="10" y="2426">  │ │ │ │ │ │   │ └── assert-plus@1.0.0 </tspan>
<tspan x="10" y="2442">  │ │ │ │ │ │   ├── jodid25519@1.0.2 </tspan>
<tspan x="10" y="2458">  │ │ │ │ │ │   ├── jsbn@0.1.1 </tspan>
<tspan x="10" y="2474">  │ │ │ │ │ │   └── tweetnacl@0.14.5 </tspan>
<tspan x="10" y="2490">  │ │ │ │ │ ├── is-typedarray@1.0.0 </tspan>
<tspan x="10" y="2506">  │ │ │ │ │ ├── isstream@0.1.2 </tspan>
<tspan x="10" y="2522">  │ │ │ │ │ ├── json-stringify-safe@5.0.1 </tspan>
<tspan x="10" y="2538">  │ │ │ │ │ ├── oauth-sign@0.8.2 </tspan>
<tspan x="10" y="2554">  │ │ │ │ │ ├── performance-now@0.2.0 </tspan>
<tspan x="10" y="2570">  │ │ │ │ │ ├── safe-buffer@5.0.1 </tspan>
<tspan x="10" y="2586">  │ │ │ │ │ ├── stringstream@0.0.5 </tspan>
<tspan x="10" y="2602">  │ │ │ │ │ ├─┬ tough-cookie@2.3.2 </tspan>
<tspan x="10" y="2618">  │ │ │ │ │ │ └── punycode@1.4.1 </tspan>
<tspan x="10" y="2634">  │ │ │ │ │ ├── tunnel-agent@0.6.0 </tspan>
<tspan x="10" y="2650">  │ │ │ │ │ └── uuid@3.0.1 </tspan>
<tspan x="10" y="2666">  │ │ │ │ ├─┬ single-line-log@1.1.2 </tspan>
<tspan x="10" y="2682">  │ │ │ │ │ └─┬ string-width@1.0.2 </tspan>
<tspan x="10" y="2698">  │ │ │ │ │   ├── code-point-at@1.1.0 </tspan>
<tspan x="10" y="2714">  │ │ │ │ │   ├─┬ is-fullwidth-code-point@1.0.0 </tspan>
<tspan x="10" y="2730">  │ │ │ │ │   │ └── number-is-nan@1.0.1 </tspan>
<tspan x="10" y="2746">  │ │ │ │ │   └─┬ strip-ansi@3.0.1 </tspan>
<tspan x="10" y="2762">  │ │ │ │ │     └── ansi-regex@2.1.1 </tspan>
<tspan x="10" y="2778">  │ │ │ │ └── throttleit@0.0.2 </tspan>
<tspan x="10" y="2794">  │ │ │ ├─┬ path-exists@2.1.0 </tspan>
<tspan x="10" y="2810">  │ │ │ │ └─┬ pinkie-promise@2.0.1 </tspan>
<tspan x="10" y="2826">  │ │ │ │   └── pinkie@2.0.4 </tspan>
<tspan x="10" y="2842">  │ │ │ ├─┬ rc@1.2.1 </tspan>
<tspan x="10" y="2858">  │ │ │ │ ├── deep-extend@0.4.1 </tspan>
<tspan x="10" y="2874">  │ │ │ │ ├── ini@1.3.4 </tspan>
<tspan x="10" y="2890">  │ │ │ │ └── strip-json-comments@2.0.1 </tspan>
<tspan x="10" y="2906">  │ │ │ ├── semver@5.3.0 </tspan>
<tspan x="10" y="2922">  │ │ │ └─┬ sumchecker@1.3.1 </tspan>
<tspan x="10" y="2938">  │ │ │   └── es6-promise@4.1.0 </tspan>
<tspan x="10" y="2954">  │ │ └─┬ extract-zip@1.6.0 </tspan>
<tspan x="10" y="2970">  │ │   ├─┬ concat-stream@1.5.0 </tspan>
<tspan x="10" y="2986">  │ │   │ ├─┬ readable-stream@2.0.6 </tspan>
<tspan x="10" y="3002">  │ │   │ │ ├── isarray@1.0.0 </tspan>
<tspan x="10" y="3018">  │ │   │ │ └── string_decoder@0.10.31 </tspan>
<tspan x="10" y="3034">  │ │   │ └── typedarray@0.0.6 </tspan>
<tspan x="10" y="3050">  │ │   ├── debug@0.7.4 </tspan>
<tspan x="10" y="3066">  │ │   ├─┬ mkdirp@0.5.0 </tspan>
<tspan x="10" y="3082">  │ │   │ └── minimist@0.0.8 </tspan>
<tspan x="10" y="3098">  │ │   └─┬ yauzl@2.4.1 </tspan>
<tspan x="10" y="3114">  │ │     └─┬ fd-slicer@1.0.1 </tspan>
<tspan x="10" y="3130">  │ │       └── pend@1.2.0 </tspan>
<tspan x="10" y="3146">  │ ├─┬ enqueue@1.0.2 </tspan>
<tspan x="10" y="3162">  │ │ └── sliced@0.0.5 </tspan>
<tspan x="10" y="3178">  │ ├── function-source@0.1.0 </tspan>
<tspan x="10" y="3194">  │ ├── jsesc@0.5.0 </tspan>
<tspan x="10" y="3210">  │ ├─┬ minstache@1.2.0 </tspan>
<tspan x="10" y="3226">  │ │ └─┬ commander@1.0.4 </tspan>
<tspan x="10" y="3242">  │ │   └── keypress@0.1.0 </tspan>
<tspan x="10" y="3258">  │ ├─┬ mkdirp@0.5.1 </tspan>
<tspan x="10" y="3274">  │ │ └── minimist@0.0.8 </tspan>
<tspan x="10" y="3290">  │ ├─┬ once@1.4.0 </tspan>
<tspan x="10" y="3306">  │ │ └── wrappy@1.0.2 </tspan>
<tspan x="10" y="3322">  │ ├─┬ rimraf@2.6.1 </tspan>
<tspan x="10" y="3338">  │ │ └─┬ glob@7.1.1 </tspan>
<tspan x="10" y="3354">  │ │   ├── fs.realpath@1.0.0 </tspan>
<tspan x="10" y="3370">  │ │   ├── inflight@1.0.6 </tspan>
<tspan x="10" y="3386">  │ │   ├─┬ minimatch@3.0.3 </tspan>
<tspan x="10" y="3402">  │ │   │ └─┬ brace-expansion@1.1.7 </tspan>
<tspan x="10" y="3418">  │ │   │   ├── balanced-match@0.4.2 </tspan>
<tspan x="10" y="3434">  │ │   │   └── concat-map@0.0.1 </tspan>
<tspan x="10" y="3450">  │ │   └── path-is-absolute@1.0.1 </tspan>
<tspan x="10" y="3466">  │ ├── sliced@1.0.1 </tspan>
<tspan x="10" y="3482">  │ └─┬ split2@2.1.1 </tspan>
<tspan x="10" y="3498">  │   └─┬ through2@2.0.3 </tspan>
<tspan x="10" y="3514">  │     ├─┬ readable-stream@2.2.9 </tspan>
<tspan x="10" y="3530">  │     │ ├── buffer-shims@1.0.0 </tspan>
<tspan x="10" y="3546">  │     │ ├── core-util-is@1.0.2 </tspan>
<tspan x="10" y="3562">  │     │ ├── isarray@1.0.0 </tspan>
<tspan x="10" y="3578">  │     │ ├── process-nextick-args@1.0.7 </tspan>
<tspan x="10" y="3594">  │     │ ├── string_decoder@1.0.0 </tspan>
<tspan x="10" y="3610">  │     │ └── util-deprecate@1.0.2 </tspan>
<tspan x="10" y="3626">  │     └── xtend@4.0.1 </tspan>
<tspan x="10" y="3642">  ├── server-destroy@1.0.1 </tspan>
<tspan x="10" y="3658">  └─┬ tmp@0.0.31 </tspan>
<tspan x="10" y="3674">    └── os-tmpdir@1.0.2</tspan>
</text>
</svg>
